<svg height="512" viewBox="0 0 64 64" width="512" xmlns="http://www.w3.org/2000/svg"><g id="Fill_Outline" data-name="Fill Outline"><rect fill="#e5c1f4" height="32" rx="6" width="46" x="3" y="17"/><path d="m61 42-12-4v-12l12-4z" fill="#f48bbc"/><path d="m31 13v4h4v-4a2 2 0 0 1 2-2h10v-4h-10a6 6 0 0 0 -6 6z" fill="#f24193"/><path d="m37 11h10v-4h-4.445a3.955 3.955 0 0 0 -.555 2h-5a6 6 0 0 0 -6 6v2h4v-4a2 2 0 0 1 2-2z" fill="#bf037d"/><path d="m33 24v8a3 3 0 0 1 -3 3h-10a3 3 0 0 1 -3-3v-8a3 3 0 0 1 3-3h10a3 3 0 0 1 3 3" fill="#f48bbc"/><path d="m21 21h-1a3 3 0 0 0 -3 3v8a3 3 0 0 0 3 3h10a3 3 0 0 0 3-3v-1h-2a10 10 0 0 1 -10-10z" fill="#f24193"/><path d="m22 31v-6l6 3z" fill="#f2ca04"/><path d="m22 25.337v5.663l3.412-1.706a10.035 10.035 0 0 1 -3.412-3.957z" fill="#f5af0b"/><rect fill="#f2ca04" height="8" rx="4" width="16" x="44" y="5"/><path d="m12 8h15.4a4 4 0 0 1 3.655 2.375l2.945 6.625h-5l-1.745-4.371a1 1 0 0 0 -.932-.629h-14.323a2 2 0 0 1 -2-2 2 2 0 0 1 2-2z" fill="#f24193"/><path d="m59 10h-8a3.972 3.972 0 0 1 -3.892-4.892 4 4 0 0 0 .892 7.892h8a4 4 0 0 0 3.892-3.108 3.974 3.974 0 0 1 -.892.108z" fill="#f5af0b"/><path d="m11 10h15.4a4 4 0 0 1 3.655 2.375l2.056 4.625h1.889l-2.944-6.625a4 4 0 0 0 -3.656-2.375h-15.4a2 2 0 0 0 -2 2 1.905 1.905 0 0 0 .027.263 1.972 1.972 0 0 1 .973-.263z" fill="#f48bbc"/><path d="m27 42a16 16 0 0 1 -16-16v-9h-2a6 6 0 0 0 -6 6v20a6 6 0 0 0 6 6h34a6 6 0 0 0 6-6v-1z" fill="#cd76f2"/><path d="m57.1 35.368a6 6 0 0 1 -4.1-5.693v-5.008l-4 1.333v12l12 4v-5.333z" fill="#f24193"/><g fill="#230135"><path d="m37 48h-28a5.006 5.006 0 0 1 -5-5v-14a1 1 0 0 0 -2 0v14a7.008 7.008 0 0 0 7 7h28a1 1 0 0 0 0-2z"/><path d="m61.584 21.189a1 1 0 0 0 -.9-.138l-10.684 3.561v-1.612a7.008 7.008 0 0 0 -7-7h-7v-3a1 1 0 0 1 1-1h3.555a1 1 0 0 0 0-2h-3.555a3 3 0 0 0 -3 3v1.538l-1.566-3.524a4.991 4.991 0 0 1 4.566-3.014h6.1a5 5 0 0 0 4.9 6h8a5 5 0 0 0 0-10h-8a4.977 4.977 0 0 0 -3.974 2h-7.026a6.992 6.992 0 0 0 -5.671 2.925 5 5 0 0 0 -3.929-1.925h-15.4a3 3 0 0 0 0 6h14.323l1.2 3h-18.523a7.008 7.008 0 0 0 -7 7v2a1 1 0 0 0 2 0v-2a5.006 5.006 0 0 1 5-5h34a5.006 5.006 0 0 1 5 5v20a5.006 5.006 0 0 1 -5 5h-2a1 1 0 0 0 0 2h2a7.008 7.008 0 0 0 7-7v-3.612l10.684 3.561a1.01 1.01 0 0 0 .316.051 1 1 0 0 0 1-1v-20a1 1 0 0 0 -.416-.811zm-13.584-15.189h8a3 3 0 0 1 0 6h-8a3 3 0 0 1 0-6zm-18.326 10-1.494-3.741a1.989 1.989 0 0 0 -1.857-1.259h-14.323a1 1 0 0 1 0-2h15.4a3 3 0 0 1 2.742 1.782l2.319 5.218zm30.326 24.613-10-3.334v-10.558l10-3.334z"/><path d="m13 38a1 1 0 0 0 -1 1v6a1 1 0 0 0 1 1h4a1 1 0 0 0 0-2h-3v-5a1 1 0 0 0 -1-1z"/><path d="m20 39v6a1 1 0 0 0 2 0v-6a1 1 0 0 0 -2 0z"/><path d="m28.051 38.684-1.051 3.154-1.051-3.154a1 1 0 1 0 -1.9.632l2 6a1 1 0 0 0 1.9 0l2-6a1 1 0 0 0 -1.9-.632z"/><path d="m37 40a1 1 0 0 0 0-2h-4a1 1 0 0 0 -1 1v6a1 1 0 0 0 1 1h4a1 1 0 0 0 0-2h-3v-1h2a1 1 0 0 0 0-2h-2v-1z"/><path d="m29 28a1 1 0 0 0 -.553-.895l-6-3a1 1 0 0 0 -1.447.895v6a1 1 0 0 0 1.447.895l6-3a1 1 0 0 0 .553-.895zm-6 1.382v-2.764l2.764 1.382z"/><path d="m34 32v-8a4 4 0 0 0 -4-4h-10a4 4 0 0 0 -4 4v8a4 4 0 0 0 4 4h5a1 1 0 0 0 0-2h-5a2 2 0 0 1 -2-2v-8a2 2 0 0 1 2-2h10a2 2 0 0 1 2 2v8a2 2 0 0 1 -2 2h-1a1 1 0 0 0 0 2h1a4 4 0 0 0 4-4z"/></g></g></svg>